<svg width="48" height="48" viewBox="0 0 48 48" fill="none" xmlns="http://www.w3.org/2000/svg">
<rect width="48" height="48" rx="24" fill="#F5F6F6"/>
<path d="M28.4599 24.9C28.4599 25.79 28.196 26.66 27.7015 27.4001C27.2071 28.1401 26.5043 28.7169 25.682 29.0575C24.8597 29.3981 23.9549 29.4872 23.082 29.3135C22.2091 29.1399 21.4073 28.7113 20.778 28.082C20.1486 27.4526 19.72 26.6508 19.5464 25.7779C19.3728 24.905 19.4619 24.0002 19.8025 23.1779C20.1431 22.3556 20.7198 21.6529 21.4599 21.1584C22.1999 20.6639 23.0699 20.4 23.9599 20.4C25.1526 20.4026 26.2957 20.8776 27.139 21.7209C27.9823 22.5643 28.4573 23.7073 28.4599 24.9ZM38.9599 17.97V31.38C38.9707 32.1901 38.6619 32.9718 38.1004 33.5558C37.5388 34.1398 36.7698 34.479 35.9599 34.5H11.9999C11.19 34.479 10.421 34.1398 9.85949 33.5558C9.29796 32.9718 8.98914 32.1901 8.99993 31.38V17.97C8.98648 17.1582 9.29413 16.3739 9.85594 15.7878C10.4178 15.2016 11.1883 14.861 11.9999 14.84H12.6399C12.7121 14.8404 12.7831 14.8222 12.8461 14.7871C12.9092 14.7521 12.9622 14.7014 12.9999 14.64L13.4799 13.9C13.5569 13.7784 13.6631 13.6781 13.7889 13.6082C13.9147 13.5383 14.056 13.5011 14.1999 13.5H15.8799C16.0238 13.5011 16.1651 13.5383 16.2909 13.6082C16.4167 13.6781 16.523 13.7784 16.5999 13.9L17.0899 14.64C17.127 14.7021 17.1798 14.7534 17.243 14.7885C17.3062 14.8236 17.3776 14.8414 17.4499 14.84H35.9099C36.3191 14.84 36.7242 14.9212 37.1017 15.079C37.4793 15.2368 37.8217 15.4679 38.1092 15.7591C38.3966 16.0503 38.6234 16.3957 38.7763 16.7752C38.9292 17.1547 39.0052 17.5609 38.9999 17.97H38.9599ZM30.4599 24.9C30.4599 23.6144 30.0787 22.3577 29.3645 21.2888C28.6503 20.2199 27.6351 19.3867 26.4474 18.8948C25.2597 18.4028 23.9527 18.2741 22.6918 18.5249C21.431 18.7757 20.2728 19.3948 19.3637 20.3038C18.4547 21.2128 17.8356 22.371 17.5848 23.6319C17.334 24.8928 17.4627 26.1997 17.9547 27.3875C18.4467 28.5752 19.2798 29.5903 20.3487 30.3045C21.4176 31.0188 22.6744 31.4 23.9599 31.4C25.6838 31.4 27.3371 30.7152 28.5561 29.4962C29.7751 28.2772 30.4599 26.6239 30.4599 24.9ZM36.6399 18C36.6427 17.7779 36.5584 17.5636 36.4052 17.4029C36.2519 17.2422 36.0419 17.1478 35.8199 17.14H32.9999C32.778 17.1478 32.5679 17.2422 32.4147 17.4029C32.2614 17.5636 32.1772 17.7779 32.1799 18V19.29C32.1772 19.5111 32.2618 19.7243 32.4153 19.8834C32.5688 20.0425 32.7789 20.1347 32.9999 20.14H35.8599C36.081 20.1347 36.291 20.0425 36.4445 19.8834C36.598 19.7243 36.6826 19.5111 36.6799 19.29L36.6399 18Z" fill="#282828"/>
</svg>
