<svg width="31" height="22" viewBox="0 0 31 22" fill="none" xmlns="http://www.w3.org/2000/svg">
<path d="M20.0005 11.9C20.0005 12.79 19.7365 13.66 19.2421 14.4001C18.7476 15.1401 18.0448 15.7169 17.2225 16.0575C16.4003 16.3981 15.4955 16.4872 14.6226 16.3135C13.7496 16.1399 12.9478 15.7113 12.3185 15.082C11.6891 14.4526 11.2606 13.6508 11.0869 12.7779C10.9133 11.905 11.0024 11.0002 11.343 10.1779C11.6836 9.35565 12.2604 8.65285 13.0004 8.15839C13.7404 7.66392 14.6104 7.39999 15.5005 7.39999C16.6931 7.40264 17.8362 7.87761 18.6795 8.72095C19.5229 9.56429 19.9978 10.7073 20.0005 11.9ZM30.5005 4.97V18.38C30.5113 19.1901 30.2024 19.9718 29.6409 20.5558C29.0794 21.1398 28.3104 21.479 27.5005 21.5H3.54046C2.73057 21.479 1.96155 21.1398 1.40002 20.5558C0.838489 19.9718 0.529669 19.1901 0.540462 18.38V4.97C0.527011 4.15819 0.834652 3.37391 1.39647 2.78775C1.95828 2.20159 2.72881 1.86097 3.54046 1.84H4.18046C4.25259 1.84038 4.32361 1.82217 4.38666 1.78714C4.44971 1.75211 4.50268 1.70143 4.54046 1.63998L5.02047 0.899994C5.09743 0.778407 5.20367 0.678068 5.32946 0.608185C5.45525 0.538301 5.59656 0.501113 5.74046 0.5H7.42046C7.56435 0.501113 7.70567 0.538301 7.83146 0.608185C7.95725 0.678068 8.0635 0.778407 8.14046 0.899994L8.63046 1.63998C8.66749 1.70211 8.7203 1.75336 8.78353 1.78848C8.84675 1.82361 8.91815 1.84138 8.99046 1.84H27.4505C27.8596 1.83996 28.2647 1.9212 28.6423 2.07898C29.0198 2.23676 29.3622 2.46794 29.6497 2.75912C29.9371 3.05031 30.1639 3.39568 30.3168 3.77521C30.4697 4.15473 30.5458 4.56086 30.5405 4.97H30.5005ZM22.0005 11.9C22.0005 10.6144 21.6192 9.35771 20.905 8.28879C20.1908 7.21987 19.1756 6.38674 17.9879 5.89478C16.8002 5.40281 15.4932 5.2741 14.2324 5.5249C12.9715 5.77571 11.8133 6.39476 10.9043 7.3038C9.99523 8.21284 9.37616 9.37102 9.12535 10.6319C8.87455 11.8928 9.00327 13.1997 9.49524 14.3875C9.98721 15.5752 10.8203 16.5903 11.8893 17.3045C12.9582 18.0188 14.2149 18.4 15.5005 18.4C17.2244 18.4 18.8777 17.7152 20.0967 16.4962C21.3156 15.2772 22.0005 13.6239 22.0005 11.9ZM28.1805 5C28.1832 4.77794 28.099 4.56362 27.9457 4.40289C27.7925 4.24217 27.5824 4.1478 27.3605 4.13998H24.5405C24.3185 4.1478 24.1085 4.24217 23.9552 4.40289C23.802 4.56362 23.7177 4.77794 23.7205 5V6.29001C23.7178 6.51109 23.8024 6.7243 23.9559 6.88342C24.1094 7.04255 24.3194 7.13474 24.5405 7.13998H27.4005C27.6215 7.13474 27.8316 7.04255 27.9851 6.88342C28.1386 6.7243 28.2232 6.51109 28.2205 6.29001L28.1805 5Z" fill="#282828"/>
</svg>
