<svg width="20" height="20" viewBox="0 0 20 20" fill="none" xmlns="http://www.w3.org/2000/svg">
<path d="M15.7503 8.56665H2.88367C2.95867 7.20832 3.267 5.43332 4.25033 5.04999C7.55419 4.05064 11.0798 4.05064 14.3837 5.04999C15.3337 5.41665 15.6503 7.24999 15.7503 8.56665Z" stroke="#282828" stroke-linecap="round" stroke-linejoin="round"/>
<path d="M16.775 8.56665C17.2996 8.70005 17.7707 8.99086 18.125 9.39998C19.5334 10.8333 18.125 13.0917 18.125 13.0917H16.0667C15.9647 12.6025 15.6973 12.1633 15.3095 11.8481C14.9217 11.5329 14.4373 11.3608 13.9375 11.3608C13.4378 11.3608 12.9533 11.5329 12.5656 11.8481C12.1778 12.1633 11.9104 12.6025 11.8084 13.0917H7.30837C7.20632 12.6025 6.93893 12.1633 6.55117 11.8481C6.16341 11.5329 5.67893 11.3608 5.17921 11.3608C4.67948 11.3608 4.195 11.5329 3.80724 11.8481C3.41948 12.1633 3.15209 12.6025 3.05004 13.0917H1.2917C1.2917 13.0917 0.875038 9.16665 2.64171 8.56665H16.775Z" stroke="#282828" stroke-linecap="round" stroke-linejoin="round"/>
<path d="M8.86707 8.56665V4.29999" stroke="#282828" stroke-linecap="round" stroke-linejoin="round"/>
<path d="M7.30795 13.0916C7.33441 13.2346 7.34836 13.3796 7.34962 13.525C7.36799 13.8213 7.32547 14.1184 7.22469 14.3977C7.1239 14.677 6.96699 14.9328 6.7636 15.1491C6.56022 15.3655 6.31468 15.538 6.04212 15.6558C5.76956 15.7737 5.47574 15.8345 5.17878 15.8345C4.88183 15.8345 4.58801 15.7737 4.31545 15.6558C4.04289 15.538 3.79735 15.3655 3.59397 15.1491C3.39058 14.9328 3.23366 14.677 3.13288 14.3977C3.03209 14.1184 2.98958 13.8213 3.00795 13.525C3.00489 13.3794 3.01888 13.2339 3.04962 13.0916C3.15167 12.6024 3.41906 12.1633 3.80682 11.8481C4.19458 11.5329 4.67906 11.3608 5.17878 11.3608C5.67851 11.3608 6.16299 11.5329 6.55075 11.8481C6.93851 12.1633 7.2059 12.6024 7.30795 13.0916Z" stroke="#282828" stroke-linecap="round" stroke-linejoin="round"/>
<path d="M16.0664 13.0916C16.0832 13.2356 16.0832 13.381 16.0664 13.525C16.0848 13.8213 16.0423 14.1184 15.9415 14.3977C15.8407 14.677 15.6838 14.9328 15.4804 15.1491C15.277 15.3655 15.0315 15.538 14.7589 15.6558C14.4864 15.7737 14.1925 15.8345 13.8956 15.8345C13.5986 15.8345 13.3048 15.7737 13.0322 15.6558C12.7597 15.538 12.5141 15.3655 12.3108 15.1491C12.1074 14.9328 11.9505 14.677 11.8497 14.3977C11.7489 14.1184 11.7064 13.8213 11.7247 13.525C11.726 13.3796 11.74 13.2346 11.7664 13.0916C11.8685 12.6024 12.1359 12.1633 12.5236 11.8481C12.9114 11.5329 13.3959 11.3608 13.8956 11.3608C14.3953 11.3608 14.8798 11.5329 15.2675 11.8481C15.6553 12.1633 15.9227 12.6024 16.0247 13.0916H16.0664Z" stroke="#282828" stroke-linecap="round" stroke-linejoin="round"/>
</svg>
