<svg width="20" height="20" viewBox="0 0 20 20" fill="none" xmlns="http://www.w3.org/2000/svg">
<path d="M15 8.33331H13.95C13.6382 7.12581 12.994 6.02997 12.0905 5.17031C11.1871 4.31065 10.0606 3.72164 8.83911 3.47021C7.61762 3.21878 6.35009 3.31501 5.18056 3.74797C4.01102 4.18093 2.98638 4.93326 2.22305 5.91946C1.45973 6.90567 0.988336 8.08621 0.862433 9.32694C0.736531 10.5677 0.96117 11.8188 1.51082 12.9383C2.06048 14.0577 2.91311 15.0005 3.97183 15.6596C5.03055 16.3187 6.25291 16.6676 7.50001 16.6666H15C16.1051 16.6666 17.1649 16.2277 17.9463 15.4463C18.7277 14.6649 19.1667 13.605 19.1667 12.5C19.1667 11.3949 18.7277 10.3351 17.9463 9.5537C17.1649 8.7723 16.1051 8.33331 15 8.33331Z" stroke="#282828" stroke-linecap="round" stroke-linejoin="round"/>
</svg>
