<svg width="30" height="31" viewBox="0 0 30 31" fill="none" xmlns="http://www.w3.org/2000/svg">
<path d="M30 15C30 22.5477 24.2951 28.9874 17 30C16.3179 30.0942 15.7084 30 15 30C14.1823 30 13.782 30.1257 13 30C5.85839 28.8544 0 22.4378 0 15C0 6.7465 6.71595 0 15 0C23.2841 0 30 6.7465 30 15Z" fill="#282828"/>
<path d="M17 12V15H21L20 20H17V30C16.3325 30.0934 15.6932 30 15 30C14.1998 30 13.7652 30.1246 13 30V20H9V15H13V11C13 8.55039 14.5716 7 17 7C16.9928 7 17.0072 7 17 7H21V11H18C17.2358 11 17 11.2288 17 12Z" fill="white"/>
</svg>
