<svg width="20" height="20" viewBox="0 0 20 20" fill="none" xmlns="http://www.w3.org/2000/svg">
<path d="M15 1.66663H5.00004C4.07957 1.66663 3.33337 2.41282 3.33337 3.33329V16.6666C3.33337 17.5871 4.07957 18.3333 5.00004 18.3333H15C15.9205 18.3333 16.6667 17.5871 16.6667 16.6666V3.33329C16.6667 2.41282 15.9205 1.66663 15 1.66663Z" stroke="#282828" stroke-linecap="round" stroke-linejoin="round"/>
<path d="M9.99996 15C11.8409 15 13.3333 13.5077 13.3333 11.6667C13.3333 9.82576 11.8409 8.33337 9.99996 8.33337C8.15901 8.33337 6.66663 9.82576 6.66663 11.6667C6.66663 13.5077 8.15901 15 9.99996 15Z" stroke="#282828" stroke-linecap="round" stroke-linejoin="round"/>
<path d="M10 5H10.0083" stroke="#282828" stroke-linecap="round" stroke-linejoin="round"/>
</svg>
