<svg width="30" height="30" viewBox="0 0 30 30" fill="none" xmlns="http://www.w3.org/2000/svg">
<path d="M30 15C30 6.73459 23.2654 0 15 0C6.73459 0 0 6.73459 0 15C0 23.2654 6.73459 30 15 30C23.2654 30 30 23.2654 30 15Z" fill="#282828"/>
<path d="M5.00003 15C5.03991 14.9798 5.96114 15.0182 6.00003 15C6.67602 14.683 7.31606 14.2968 8.00003 14C7.96513 14.0141 8.03692 14 8.00003 14C7.94719 14.0232 8.05287 13.9768 8.00003 14C7.89933 14.0444 8.10173 13.9556 8.00003 14C8.20342 13.9122 8.79663 13.0878 9.00003 13H10C10.8116 12.6487 12.1884 12.3513 13 12C13.8116 11.6487 14.1884 11.3513 15 11C15.8116 10.6487 17.1884 9.35132 18 9C18.8116 8.64868 19.1884 8.35132 20 8C20.1805 7.92126 20.8066 8.03433 21 8C20.8365 8.0313 21.1625 7.97073 21 8C21.3101 7.94044 21.7029 7.86977 22 8C22.1027 8.04543 22.9213 7.92025 23 8C23.3769 8.37757 23.0798 9.46899 23 10C22.4447 13.701 21.5564 17.299 21 21C20.9243 21.5078 21.3959 22.679 21 23C20.665 23.2716 19.4138 23.1151 19 23C18.5863 22.8839 18.358 22.2393 18 22C16.5154 21.0046 15.4846 19.9954 14 19C13.6471 18.7638 12.996 18.4291 13 18C12.8445 18.2049 13.002 17.7416 13 18C14.2902 16.2959 16.6151 14.6254 18 13C18.1954 12.7708 18.2682 12.1323 18 12C17.8405 11.9213 17.1456 11.898 17 12C15.1695 13.2872 13.8306 14.7128 12 16C11.4028 16.42 10.7199 16.897 10 17C9.35594 17.0929 8.62318 17.1858 8.00003 17C7.47758 16.8445 6.51949 16.1646 6.00003 16C5.72385 15.9132 5.21339 16.1969 5.00003 16C4.78666 15.8031 4.87141 15.2625 5.00003 15C5.08079 14.8354 4.83552 15.0848 5.00003 15Z" fill="white"/>
</svg>
